<!--?xml version="1.0" encoding="utf-8"?-->
<!-- Generator: Adobe Illustrator 18.1.1, SVG Export Plug-In . SVG Version: 6.00 Build 0)  -->

<svg version="1.1" id="_x31_0" xmlns="http://www.w3.org/2000/svg" xmlns:xlink="http://www.w3.org/1999/xlink" x="0px" y="0px" viewBox="0 0 512 512" style="width: 512px; height: 512px; opacity: 1;" xml:space="preserve">
<style type="text/css">
	.st0{fill:#374149;}
</style>
<g>
	<path class="st0" d="M256,0C114.614,0,0,114.617,0,256c0,141.386,114.614,256,256,256c141.383,0,256-114.614,256-256
		C512,114.617,397.383,0,256,0z M298.762,443.098v-30.578h-85.523v25.317l-0.035,5.297c-23.988-5.484-46.187-15.602-65.844-29.152
		c-2.386-1.661-4.836-3.238-7.144-5c-0.024-0.02-0.051-0.043-0.078-0.066c-33.754-25.805-58.594-62.418-69.754-103.794
		C66.226,289.438,64,272.977,64,256c0-105.867,86.129-192,192-192c105.867,0,192,86.133,192,192c0,16.965-2.226,33.414-6.379,49.09
		C423.457,372.453,368.969,427.156,298.762,443.098z" style="fill: rgb(75, 75, 75);"></path>
	<path class="st0" d="M262.93,122.027c-2.074-2.691-5.305-3.578-8.34-3.062c-0.328,0.054-0.648,0.125-0.965,0.215
		c-0.863,0.25-1.637,0.629-2.402,1.148c-0.374,0.258-0.726,0.543-1.062,0.859c-0.328,0.313-0.746,0.469-1.035,0.84l-96.71,118.29
		c-4.387,5.675-0.258,13.8,6.836,13.8h53.449c0.313,0,0.566,0.254,0.566,0.566v66.309c0,0.313,0.254,0.566,0.566,0.566h84.39
		c0.313,0,0.566-0.254,0.566-0.566v-66.309c0-0.312,0.254-0.566,0.566-0.566h53.45c7.094,0,11.094-8.125,6.836-13.804
		L262.93,122.027z" style="fill: rgb(75, 75, 75);"></path>
	<path class="st0" d="M213.238,388.324c0,0.106,0.254,0.195,0.566,0.195h84.39c0.313,0,0.566-0.09,0.566-0.195v-42.766
		l-85.523,0.004V388.324z" style="fill: rgb(75, 75, 75);"></path>
</g>
</svg>
